<svg width="116" height="106" viewBox="0 0 116 106" xmlns="http://www.w3.org/2000/svg">
    <g fill="none" fill-rule="evenodd">
        <path d="M78.19 46.086c13.033 26.764 15.722 51.986 5.844 57.028-10.185 5.2-29.874-13.021-43.976-40.699C25.955 34.738 22.78 8.085 32.966 2.886 37.401.621 43.64 2.799 50.431 8.262" stroke="#EED9B7" stroke-width="3.5" stroke-linecap="round"/>
        <path d="M13.776 64.477C6.18 60.537 1.756 55.792 2.01 50.889c.593-11.372 26.141-19.287 57.063-17.682 30.922 1.606 55.509 12.126 54.917 23.498-.257 4.904-5.15 9.163-13.114 12.295" stroke="#EED9B7" stroke-width="3.5" stroke-linecap="round"/>
        <path d="M45.826 94.462c-8.28 6.011-15.649 8.206-20.258 5.198-9.541-6.225-3.652-32.386 13.156-58.433C55.53 15.182 76.89-.887 86.432 5.34c4.436 2.893 5.536 10.094 3.756 19.587" stroke="#EED9B7" stroke-width="3.5" stroke-linecap="round"/>
        <path d="M66.84 51.522a6.998 6.998 0 1 1-13.682 2.956 6.998 6.998 0 0 1 13.683-2.956" fill="#EED9B7"/>
    </g>
</svg>
